<!--?xml version="1.0" encoding="utf-8"?-->
<!-- Generator: Adobe Illustrator 23.0.1, SVG Export Plug-In . SVG Version: 6.00 Build 0)  -->
<svg version="1.1" id="Group_2_1_" xmlns="http://www.w3.org/2000/svg" xmlns:xlink="http://www.w3.org/1999/xlink" x="0px" y="0px" viewBox="0 0 300 92" style="" xml:space="preserve">
<style type="text/css">
	.st0{display:none;fill:none;stroke:url(#SVGID_1_);stroke-miterlimit:10;}
	.st1{display:none;fill-rule:evenodd;clip-rule:evenodd;fill:none;stroke:#9FC217;stroke-miterlimit:10;}
	.st2{fill:#FFFFFF;stroke:url(#SVGID_2_);stroke-miterlimit:10;}
	.st3{fill-rule:evenodd;clip-rule:evenodd;fill:#FFFFFF;stroke:#9FC217;stroke-miterlimit:10;}
	.st4{fill:#FFFFFF;stroke:#000000;stroke-miterlimit:10;}
</style>
<radialGradient id="SVGID_1_" cx="260.0098" cy="58.4759" r="34.5124" gradientUnits="userSpaceOnUse">
	<stop offset="0" style="stop-color:#387A10"></stop>
	<stop offset="1" style="stop-color:#50B90F"></stop>
</radialGradient>
<path class="st0 UedeDdAe_0" d="M274.1,25.2L226,92L244.9,92L294,25Z"></path>
<path class="st1 UedeDdAe_1" d="M249,25L229,25L271,92L289,92Z"></path>
<radialGradient id="SVGID_2_" cx="260.0116" cy="57.7411" r="34.5124" gradientUnits="userSpaceOnUse">
	<stop offset="0" style="stop-color:#387A10"></stop>
	<stop offset="1" style="stop-color:#50B90F"></stop>
</radialGradient>
<path class="st2 UedeDdAe_2" d="M274.1,24.4L226,91.2L244.9,91.3L294,24.2Z"></path>
<path class="st3 UedeDdAe_3" d="M249,24.2L229,24.2L271,91.2L289,91.2Z"></path>
<path class="st4 UedeDdAe_4" d="M19.7,90.3L27.2,90.3L45.8,55.9L54.6,90.3L62.3,90.3L97.8,25.2L80.8,25.2L61.9,60.1L52.8,25.2L
	46.5,25.2L27.5,60.1L18.5,25.2L3.1,25.2Z"></path>
<path class="st4 UedeDdAe_5" d="M123.9,77.3c-4.9,0-8.8-1.3-11.6-4c-2.8-2.7-4.3-6.3-4.5-10.8h52c0.4-2.5,0.6-4.7,0.6-6.6
	c0-6-1.4-11.5-4.1-16.7c-2.8-5.1-6.5-9-11.3-11.7c-4.8-2.7-10.2-4-16.3-4c-10.1,0-18.8,3.7-26,11c-7.2,7.3-10.7,16.3-10.7,26.9
	c0,9.3,2.9,16.7,8.6,22.3c5.7,5.6,13.6,8.4,23.5,8.4c6.3,0,12.1-1.2,17.3-3.6c5.2-2.4,9.4-5.7,12.5-9.8l-14.1-7.3
	C135.2,75.3,129.9,77.3,123.9,77.3L123.9,77.3z M110,50.7c1.6-3.9,4-6.9,7.2-9c3.2-2.1,6.7-3.2,10.6-3.2c4,0,7.3,1,10.1,3.1
	c2.8,2.1,4.8,5.1,6,9.1H110z"></path>
<path class="st4 UedeDdAe_6" d="M176.7,81.2c2.2,3.5,4.9,6.2,8.3,8c3.4,1.8,7.1,2.8,11.1,2.8c5.9,0,11.6-1.6,17-4.9c5.4-3.3,9.8-7.8,13-13.6
	c3.2-5.8,4.9-12,4.9-18.4c0-8.4-2.5-15.8-7.6-22.1c-5.1-6.3-11.9-9.5-20.4-9.5c-3.7,0-7.1,0.6-10.1,1.9c-3,1.3-6.2,3.5-9.7,6.8
	L187.6,0h-15.8l-12.3,90.3h16L176.7,81.2z M210.6,42.4c3,3.1,4.5,7.3,4.5,12.4c0,6.6-2,12-5.9,16.2s-8.7,6.3-14.3,6.3
	c-4.8,0-8.7-1.6-11.7-4.7c-3-3.1-4.4-7.3-4.4-12.4c0-3.9,1-7.8,2.9-11.5c2-3.8,4.4-6.5,7.3-8.3c2.9-1.8,6.3-2.7,10.2-2.7
	C203.8,37.7,207.6,39.2,210.6,42.4z"></path>
<style data-made-with="vivus-instant">.UedeDdAe_0{stroke-dasharray:205 207;stroke-dashoffset:206;animation:UedeDdAe_draw_0 7200ms ease 0ms infinite,UedeDdAe_fade 7200ms linear 0ms infinite;}.UedeDdAe_1{stroke-dasharray:196 198;stroke-dashoffset:197;animation:UedeDdAe_draw_1 7200ms ease 0ms infinite,UedeDdAe_fade 7200ms linear 0ms infinite;}.UedeDdAe_2{stroke-dasharray:205 207;stroke-dashoffset:206;animation:UedeDdAe_draw_2 7200ms ease 0ms infinite,UedeDdAe_fade 7200ms linear 0ms infinite;}.UedeDdAe_3{stroke-dasharray:196 198;stroke-dashoffset:197;animation:UedeDdAe_draw_3 7200ms ease 0ms infinite,UedeDdAe_fade 7200ms linear 0ms infinite;}.UedeDdAe_4{stroke-dasharray:422 424;stroke-dashoffset:423;animation:UedeDdAe_draw_4 7200ms ease 0ms infinite,UedeDdAe_fade 7200ms linear 0ms infinite;}.UedeDdAe_5{stroke-dasharray:389 391;stroke-dashoffset:390;animation:UedeDdAe_draw_5 7200ms ease 0ms infinite,UedeDdAe_fade 7200ms linear 0ms infinite;}.UedeDdAe_6{stroke-dasharray:434 436;stroke-dashoffset:435;animation:UedeDdAe_draw_6 7200ms ease 0ms infinite,UedeDdAe_fade 7200ms linear 0ms infinite;}@keyframes UedeDdAe_draw{100%{stroke-dashoffset:0;}}@keyframes UedeDdAe_fade{0%{stroke-opacity:1;}94.44444444444444%{stroke-opacity:1;}100%{stroke-opacity:0;}}@keyframes UedeDdAe_draw_0{11.11111111111111%{stroke-dashoffset: 206}38.88888888888889%{ stroke-dashoffset: 0;}100%{ stroke-dashoffset: 0;}}@keyframes UedeDdAe_draw_1{13.425925925925924%{stroke-dashoffset: 197}41.2037037037037%{ stroke-dashoffset: 0;}100%{ stroke-dashoffset: 0;}}@keyframes UedeDdAe_draw_2{15.740740740740739%{stroke-dashoffset: 206}43.51851851851851%{ stroke-dashoffset: 0;}100%{ stroke-dashoffset: 0;}}@keyframes UedeDdAe_draw_3{18.055555555555554%{stroke-dashoffset: 197}45.83333333333333%{ stroke-dashoffset: 0;}100%{ stroke-dashoffset: 0;}}@keyframes UedeDdAe_draw_4{20.37037037037037%{stroke-dashoffset: 423}48.148148148148145%{ stroke-dashoffset: 0;}100%{ stroke-dashoffset: 0;}}@keyframes UedeDdAe_draw_5{22.685185185185183%{stroke-dashoffset: 390}50.462962962962955%{ stroke-dashoffset: 0;}100%{ stroke-dashoffset: 0;}}@keyframes UedeDdAe_draw_6{25%{stroke-dashoffset: 435}52.77777777777778%{ stroke-dashoffset: 0;}100%{ stroke-dashoffset: 0;}}</style></svg>
